<svg width="380" height="260" viewBox="0 0 380 260" fill="none" xmlns="http://www.w3.org/2000/svg">
<path fill-rule="evenodd" clip-rule="evenodd" d="M135.996 160.975C132.913 102.999 176.394 65.9934 189.654 54.8917C202.914 65.9934 246.395 102.999 243.312 160.975C267.717 109.946 253.556 44.3261 189.654 0C125.751 44.3261 111.591 109.946 135.996 160.975ZM189.654 225.426C160.043 203.535 148.379 188.965 146.481 154.19C149.363 115.48 159.905 97.3502 189.654 69.3856C219.403 97.3502 229.945 115.48 232.827 154.19C230.929 188.965 219.265 203.535 189.654 225.426ZM0 192.121C16.0363 177.627 47.4906 167.759 47.4906 167.759C47.4906 167.759 83.8806 235.294 181.637 233.752C117.493 281.86 43.79 259.04 0 192.121ZM168.993 222.959C109.167 167.759 111.634 118.11 116.26 85.7298C100.224 75.5532 70.6198 69.3856 37.9313 69.3856C31.4551 136.613 68.1524 218.95 168.993 222.959ZM379.308 192.121C363.272 177.627 331.817 167.759 331.817 167.759C331.817 167.759 295.427 235.294 197.671 233.752C261.814 281.86 335.518 259.04 379.308 192.121ZM210.315 222.959C270.141 167.759 267.674 118.11 263.048 85.7298C279.084 75.5532 308.688 69.3856 341.377 69.3856C347.853 136.613 311.155 218.95 210.315 222.959Z" fill="url(#paint0_linear_28_19)"/>
<defs>
<linearGradient id="paint0_linear_28_19" x1="379" y1="1.62239e-05" x2="-6.65615e-08" y2="259" gradientUnits="userSpaceOnUse">
<stop stop-color="#DF3DFF"/>
<stop offset="1" stop-color="#FF9800"/>
</linearGradient>
</defs>
</svg>
