<svg width="500" height="500" viewBox="0 0 500 500" fill="none" xmlns="http://www.w3.org/2000/svg">
<g clip-path="url(#clip0_26_2)">
<rect width="500" height="500" rx="145" fill="white"/>
<path fill-rule="evenodd" clip-rule="evenodd" d="M195.996 280.975C192.913 222.999 236.394 185.993 249.654 174.892C262.914 185.993 306.395 222.999 303.312 280.975C327.717 229.946 313.556 164.326 249.654 120C185.751 164.326 171.591 229.946 195.996 280.975ZM249.654 345.426C220.043 323.535 208.379 308.965 206.481 274.19C209.363 235.48 219.905 217.35 249.654 189.386C279.403 217.35 289.945 235.48 292.827 274.19C290.929 308.965 279.265 323.535 249.654 345.426ZM60 312.121C76.0363 297.627 107.491 287.759 107.491 287.759C107.491 287.759 143.881 355.294 241.637 353.752C177.493 401.86 103.79 379.04 60 312.121ZM228.993 342.959C169.167 287.759 171.634 238.11 176.26 205.73C160.224 195.553 130.62 189.386 97.9313 189.386C91.4551 256.613 128.152 338.95 228.993 342.959ZM439.308 312.121C423.272 297.627 391.817 287.759 391.817 287.759C391.817 287.759 355.427 355.294 257.671 353.752C321.814 401.86 395.518 379.04 439.308 312.121ZM270.315 342.959C330.141 287.759 327.674 238.11 323.048 205.73C339.084 195.553 368.688 189.386 401.377 189.386C407.853 256.613 371.155 338.95 270.315 342.959Z" fill="url(#paint0_linear_26_2)"/>
</g>
<defs>
<linearGradient id="paint0_linear_26_2" x1="439" y1="120" x2="60" y2="379" gradientUnits="userSpaceOnUse">
<stop stop-color="#DF3DFF"/>
<stop offset="1" stop-color="#FF9800"/>
</linearGradient>
<clipPath id="clip0_26_2">
<rect width="500" height="500" fill="white"/>
</clipPath>
</defs>
</svg>
